<?xml version="1.0" encoding="UTF-8"?>
<svg version="1.1" xmlns="http://www.w3.org/2000/svg" width="110" height="110">
<path d="M0 0 C0.87914062 0.60199219 1.75828125 1.20398438 2.6640625 1.82421875 C4.96529246 3.3048342 4.96529246 3.3048342 7.515625 2.34375 C8.33546875 1.9003125 9.1553125 1.456875 10 1 C10.77859375 0.5978125 11.5571875 0.195625 12.359375 -0.21875 C13.14828125 -0.6415625 13.9371875 -1.064375 14.75 -1.5 C23.19331336 -5.75302114 31.67478131 -7.26065908 41 -5 C41 -4.01 41 -3.02 41 -2 C40.32195312 -1.78085937 39.64390625 -1.56171875 38.9453125 -1.3359375 C30.14739264 1.6616917 22.54713923 5.31472823 16 12 C16.92897095 12.9132605 16.92897095 12.9132605 17.87670898 13.8449707 C20.22375339 16.15745149 22.56585912 18.47473018 24.9050293 20.79516602 C25.90869508 21.78891826 26.91416454 22.7808529 27.92163086 23.77075195 C34.77053759 30.50340165 41.02765772 37.46026943 47 45 C47.94457417 46.14058116 48.89291961 47.27806805 49.84765625 48.41015625 C50.57855469 49.28542969 51.30945313 50.16070312 52.0625 51.0625 C53.19365234 52.41021484 53.19365234 52.41021484 54.34765625 53.78515625 C56 56 56 56 56 58 C49.65960469 58.55287964 43.3419741 58.87078771 36.9765625 58.7265625 C35.93322754 58.70674316 34.88989258 58.68692383 33.81494141 58.66650391 C30.08823112 57.78411717 28.95855728 56.22771233 26.8125 53.125 C26.1792366 51.42006008 25.54714727 49.71463303 24.9296875 48.00390625 C22.95811267 43.75425127 19.74898487 40.24021641 16.8125 36.625 C15.60830653 35.11908003 14.40638339 33.61134106 13.20703125 32.1015625 C12.65096191 31.40321289 12.09489258 30.70486328 11.52197266 29.98535156 C10.15876889 28.20710757 8.91187557 26.40605498 7.69921875 24.5234375 C6.24534894 21.91762696 6.24534894 21.91762696 4 21 C3.72542969 21.58233398 3.45085938 22.16466797 3.16796875 22.76464844 C2.03110255 24.94047346 0.77786687 26.79942384 -0.6875 28.765625 C-1.21496826 29.48379395 -1.74243652 30.20196289 -2.28588867 30.94189453 C-3.45089732 32.51061577 -4.62322118 34.07392525 -5.80200195 35.63232422 C-8.71039712 39.54703431 -11.24715786 43.24683253 -13.16796875 47.7421875 C-17.07334786 56.49069415 -17.07334786 56.49069415 -21 59 C-29.49254389 60.94187136 -38.42222794 59.97752388 -47 59 C-40.07085195 40.71702134 -18.59913012 24.46923394 -5 11 C-13.44272322 5.96683808 -21.78329327 1.51112637 -31 -2 C-31 -2.99 -31 -3.98 -31 -5 C-19.70760032 -8.13389991 -10.27963582 -4.58235393 0 0 Z " fill="#1E96E0" transform="translate(50,23)"/>
<path d="M0 0 C8.58 0 17.16 0 26 0 C31 11 31 11 31 13 C22.30019136 14.01286753 13.74507107 14.10621544 5 14 C4.15973604 12.23244474 3.32801278 10.46082737 2.5 8.6875 C2.0359375 7.70136719 1.571875 6.71523437 1.09375 5.69921875 C0 3 0 3 0 0 Z " fill="#D1E0E8" transform="translate(2,83)"/>
<path d="M0 0 C1.11826172 0.00322266 2.23652344 0.00644531 3.38867188 0.00976562 C4.55591797 0.01814453 5.72316406 0.02652344 6.92578125 0.03515625 C8.10462891 0.03966797 9.28347656 0.04417969 10.49804688 0.04882812 C13.41150914 0.06062352 16.32486988 0.07708355 19.23828125 0.09765625 C18.23828125 4.09765625 18.23828125 4.09765625 13.23828125 13.09765625 C4.98828125 13.09765625 -3.26171875 13.09765625 -11.76171875 13.09765625 C-9.76171875 4.09765625 -9.76171875 4.09765625 -8.76171875 1.09765625 C-5.58384334 0.03836445 -3.33582932 -0.01693314 0 0 Z " fill="#D3E2E9" transform="translate(89.76171875,82.90234375)"/>
<path d="M0 0 C0.66580985 7.08347699 -0.62763242 11.24497171 -4.5 17.125 C-5.41682331 18.59333184 -6.33083173 20.0634246 -7.2421875 21.53515625 C-7.70334961 22.27137207 -8.16451172 23.00758789 -8.63964844 23.76611328 C-10.78345335 27.28653951 -12.71101079 30.9134073 -14.625 34.5625 C-14.96724609 35.2117041 -15.30949219 35.8609082 -15.66210938 36.52978516 C-16.44471616 38.01812103 -17.22291314 39.50877465 -18 41 C-18.66 41 -19.32 41 -20 41 C-23.50721772 32.37808978 -23.50721772 32.37808978 -23 28 C-20.775577 23.72779936 -17.81794642 19.89995572 -15 16 C-14.50226074 15.30148926 -14.00452148 14.60297852 -13.49169922 13.88330078 C-11.90373863 11.66210737 -10.29899878 9.4541635 -8.6875 7.25 C-8.17219727 6.53416748 -7.65689453 5.81833496 -7.12597656 5.08081055 C-6.63452148 4.41992432 -6.14306641 3.75903809 -5.63671875 3.078125 C-5.20061279 2.48418945 -4.76450684 1.89025391 -4.31518555 1.27832031 C-3 0 -3 0 0 0 Z " fill="#D5E3EA" transform="translate(54,52)"/>
<path d="M0 0 C4.41179807 2.94119871 6.98269701 6.54416088 9.8828125 10.875 C11.52143215 13.29362679 13.19851036 15.64888178 14.9296875 18 C15.95322019 19.4165979 16.97665761 20.83326463 18 22.25 C18.50547363 22.92321289 19.01094727 23.59642578 19.53173828 24.29003906 C23.02912783 29.20509224 23.02912783 29.20509224 22.87890625 33.3046875 C22.02374419 35.9271845 21.11357331 38.47590051 20 41 C19.01 41 18.02 41 17 41 C16.52691406 40.00742188 16.05382812 39.01484375 15.56640625 37.9921875 C8.72980832 23.05615713 8.72980832 23.05615713 -1 10 C-0.91036938 8.30858344 -0.75422324 6.62040398 -0.5625 4.9375 C-0.46066406 4.01839844 -0.35882813 3.09929688 -0.25390625 2.15234375 C-0.17011719 1.44207031 -0.08632813 0.73179688 0 0 Z " fill="#D5E3EA" transform="translate(57,51)"/>
<path d="M0 0 C5.48736342 0.47074693 9.44790088 1.96460565 14.1875 4.8125 C14.79013672 5.15603516 15.39277344 5.49957031 16.01367188 5.85351562 C19.4782128 7.88051926 22.3057903 10.02500418 25 13 C23.75 14.5625 23.75 14.5625 22 16 C18.39858462 15.5963931 16.10678175 13.81189025 13.25 11.6875 C8.98058452 8.60896005 4.77101134 6.20880154 0 4 C0 2.68 0 1.36 0 0 Z " fill="#D8E5EB" transform="translate(17,22)"/>
<path d="M0 0 C0 0.99 0 1.98 0 3 C-0.54527344 3.27972656 -1.09054688 3.55945313 -1.65234375 3.84765625 C-6.91068875 6.64311829 -11.42771451 9.77522424 -15.95703125 13.64453125 C-18 15 -18 15 -22 15 C-22.66 14.34 -23.32 13.68 -24 13 C-23.82299805 11.00439453 -23.82299805 11.00439453 -23 9 C-20.60750208 7.43646868 -18.35347203 6.14187326 -15.8125 4.875 C-14.8215332 4.35486328 -14.8215332 4.35486328 -13.81054688 3.82421875 C-3.2427534 -1.6213767 -3.2427534 -1.6213767 0 0 Z " fill="#D6E4EA" transform="translate(93,23)"/>
<path d="M0 0 C3.25516428 3.16474305 6.32008793 6.32752791 9 10 C9 10.66 9 11.32 9 12 C0.75 12 -7.5 12 -16 12 C-17.98 8.535 -17.98 8.535 -20 5 C-19.67 4.34 -19.34 3.68 -19 3 C-15 7.75 -15 7.75 -15 10 C-8.07 10 -1.14 10 6 10 C4.02 7.36 2.04 4.72 0 2 C0 1.34 0 0.68 0 0 Z " fill="#67ADD9" transform="translate(97,69)"/>
<path d="M0 0 C0.66 0.33 1.32 0.66 2 1 C0.8737793 3.46948242 0.8737793 3.46948242 -1 6 C-3.72729492 6.56762695 -3.72729492 6.56762695 -6.98046875 6.48828125 C-8.14384766 6.47216797 -9.30722656 6.45605469 -10.50585938 6.43945312 C-11.72080078 6.39755859 -12.93574219 6.35566406 -14.1875 6.3125 C-15.41404297 6.28994141 -16.64058594 6.26738281 -17.90429688 6.24414062 C-20.93741559 6.18513053 -23.96810222 6.10284592 -27 6 C-26.67 5.01 -26.34 4.02 -26 3 C-17.75 3.33 -9.5 3.66 -1 4 C-0.67 2.68 -0.34 1.36 0 0 Z " fill="#9ECFEA" transform="translate(30,76)"/>
<path d="M0 0 C8.58 0 17.16 0 26 0 C26 0.66 26 1.32 26 2 C18.08 2 10.16 2 2 2 C2.33 3.65 2.66 5.3 3 7 C0 3.375 0 3.375 0 0 Z " fill="#E1EBEF" transform="translate(2,83)"/>
<path d="" fill="#E1EBF0" transform="translate(0,0)"/>
<path d="" fill="#EDFCFF" transform="translate(0,0)"/>
<path d="" fill="#EFFFFF" transform="translate(0,0)"/>
<path d="" fill="#D7E6EF" transform="translate(0,0)"/>
<path d="" fill="#FFFFFF" transform="translate(0,0)"/>
<path d="" fill="#FFFFFF" transform="translate(0,0)"/>
<path d="" fill="#D5E7F3" transform="translate(0,0)"/>
<path d="" fill="#BBD8EC" transform="translate(0,0)"/>
<path d="" fill="#C6E2F4" transform="translate(0,0)"/>
<path d="" fill="#EBF7FE" transform="translate(0,0)"/>
<path d="" fill="#E6EFF6" transform="translate(0,0)"/>
<path d="" fill="#E2ECF0" transform="translate(0,0)"/>
<path d="" fill="#E4EDF5" transform="translate(0,0)"/>
<path d="" fill="#FFFFFF" transform="translate(0,0)"/>
</svg>
